<svg id="Component_6_1" data-name="Component 6 – 1" xmlns="http://www.w3.org/2000/svg" width="2623.765" height="344.574" viewBox="0 0 2623.765 344.574">
  <path id="Path_1982" data-name="Path 1982" d="M2189.483,316.79c-41.3,0-73.986-11.179-97.148-33.226-23.145-22.048-34.88-52.629-34.88-90.9,0-24.476,4.978-46.26,14.8-64.748a109.426,109.426,0,0,1,41.494-43.648c17.721-10.446,38.705-15.744,62.371-15.744,23.462,0,43.316,5.106,59.012,15.175s27.7,24.25,35.707,42.166,12.058,39.01,12.058,62.733v16.536H2125.2c1.521,17.95,7.183,31.836,16.845,41.254,11.469,11.178,28.1,16.846,49.436,16.846a135.572,135.572,0,0,0,36.6-4.823,108.108,108.108,0,0,0,32.676-15.726l19.6,47.024a134.109,134.109,0,0,1-40.961,19.981A172.533,172.533,0,0,1,2189.483,316.79Zm-12.746-200.583c-16.708,0-29.69,6.143-38.584,18.258-6.511,8.887-10.694,20.836-12.431,35.517h97.436c-.8-16.569-4.787-29.534-11.868-38.515C2203.305,121.341,2191.679,116.207,2176.737,116.207ZM1817.565,316.79c-19.087,0-36.311-4.711-51.192-14-10.8-6.741-19.083-15.288-24.632-25.4v34.4h-70.26V47.085L1742.5,1.18V105.763c5.726-9.425,13.979-17.417,24.493-23.765,14.787-8.938,31.8-13.47,50.572-13.47,20.707,0,39.148,5.088,54.809,15.124,15.669,10.057,28.089,24.5,36.913,42.941,8.835,18.459,13.315,40.84,13.315,66.522s-4.48,48.011-13.315,66.367-21.3,32.643-37.068,42.477C1856.463,311.8,1838.074,316.79,1817.565,316.79ZM1796.1,122.08c-16.269,0-29.593,5.743-39.6,17.07s-15.089,29.279-15.089,53.345,5.077,42.066,15.089,53.5,23.34,17.242,39.6,17.242c16.162,0,29.514-5.7,39.685-16.932s15.331-29.131,15.331-53.19-5.158-42.111-15.331-53.655S1812.275,122.08,1796.1,122.08ZM1481.284,316.79c-20.492,0-38.828-5.013-54.5-14.9-15.636-9.865-28.026-24.26-36.827-42.786s-13.246-40.935-13.246-66.609c0-25.657,4.456-48.016,13.246-66.453,8.8-18.414,21.195-32.752,36.827-42.614,15.671-9.887,34.007-14.9,54.5-14.9,19.2,0,36.553,4.712,51.589,14,11.02,6.81,19.406,15.4,24.925,25.538L1558,73.524h69.52V311.777h-70.4l-.453-32.62c-5.575,9.492-13.861,17.566-24.593,24.008C1517.035,312.206,1499.945,316.79,1481.284,316.79ZM1502.9,122.08c-16.269,0-29.592,5.743-39.6,17.07s-15.088,29.28-15.088,53.345,4.995,42.072,14.847,53.5,23.268,17.242,39.841,17.242c16.26,0,29.583-5.8,39.6-17.242s15.089-29.436,15.089-53.5-5.077-42.013-15.089-53.345S1519.171,122.08,1502.9,122.08ZM1264.079,316.79c-41.29,0-73.969-11.179-97.131-33.226s-34.9-52.624-34.9-90.9c0-24.443,4.978-46.227,14.8-64.748a109.426,109.426,0,0,1,41.5-43.648c17.736-10.446,38.727-15.744,62.388-15.744,23.467,0,43.316,5.106,59,15.175s27.7,24.25,35.706,42.166,12.075,39.035,12.075,62.733v16.536H1199.8c1.525,17.943,7.192,31.83,16.862,41.254,11.452,11.178,28.079,16.846,49.418,16.846a135.644,135.644,0,0,0,36.62-4.823,107.912,107.912,0,0,0,32.658-15.726l19.619,47.024a134.233,134.233,0,0,1-40.961,19.981A172.6,172.6,0,0,1,1264.079,316.79ZM1251.35,116.207c-16.709,0-29.69,6.143-38.584,18.258-6.521,8.883-10.71,20.832-12.448,35.517h97.452c-.8-16.559-4.8-29.524-11.885-38.515C1277.918,121.341,1266.3,116.207,1251.35,116.207ZM539.206,316.79c-20.48,0-38.811-5.013-54.482-14.9-15.652-9.875-28.049-24.271-36.844-42.786s-13.246-40.933-13.246-66.609c0-25.658,4.457-48.016,13.246-66.453,8.8-18.4,21.2-32.741,36.844-42.614,15.671-9.887,34-14.9,54.482-14.9,19.2,0,36.553,4.712,51.589,14,11.034,6.819,19.424,15.415,24.938,25.547l.193-34.556h69.519V311.777h-70.4l-.451-32.609c-5.582,9.488-13.862,17.559-24.576,24C574.957,312.206,557.861,316.79,539.206,316.79ZM560.823,122.08c-16.269,0-29.592,5.743-39.6,17.07s-15.088,29.28-15.088,53.345,5,42.072,14.847,53.5,23.267,17.242,39.841,17.242c16.26,0,29.583-5.8,39.6-17.242s15.089-29.436,15.089-53.5-5.077-42.013-15.089-53.345S577.093,122.08,560.823,122.08ZM385.957,316.79c-30.912,0-54.51-7.812-70.139-23.219-15.625-15.385-23.547-38.908-23.547-69.915V126.283H247.09V73.524h45.18V48.25l71.018-45.9v71.17h60.993v52.76H363.289v93.892c0,14.96,3.141,25.375,9.336,30.953s14.326,8.406,24.166,8.406a73.142,73.142,0,0,0,14.693-1.275,89.438,89.438,0,0,0,12.471-3.617V309.9a83.852,83.852,0,0,1-18.965,5.305A122.344,122.344,0,0,1,385.957,316.79ZM950.639,311.8h-.019l-71-.019V170.43c0-16.672-2.718-28.8-8.079-36.051s-14-10.921-25.682-10.921c-14.168,0-25.4,5.106-33.4,15.175s-12.041,24.007-12.041,41.391V311.777H729.4V73.524h64.782l3.884,35.361a80.021,80.021,0,0,1,25.967-27.231c13.475-8.709,29.656-13.125,48.092-13.125,18.133,0,33.577,4.364,45.9,12.97,10.168,7.085,18.05,17.6,23.426,31.252a84.776,84.776,0,0,1,28.558-29.926c14.942-9.486,32.078-14.3,50.934-14.3,26.905,0,47.253,8.113,60.476,24.115,13.2,16,19.895,41.322,19.895,75.272V311.758l-71.173.019V170.43c0-16.695-2.718-28.824-8.079-36.051-5.362-7.246-14-10.921-25.682-10.921-14.168,0-25.457,5.106-33.554,15.175s-12.195,24.007-12.195,41.391V311.8Zm-879.62,0H71l-71-.019V73.524H64.576L68.7,109.515a83.488,83.488,0,0,1,28.83-28.171c14.47-8.5,31.323-12.815,50.09-12.815,27.882,0,49.088,8.137,63.025,24.184s21.015,41.356,21.015,75.2V311.758l-71.018.019V171.05c0-17.105-3.223-29.443-9.578-36.671-6.356-7.246-15.825-10.921-28.145-10.921-15.761,0-28.488,5.03-37.825,14.951-9.338,9.9-14.073,23.284-14.073,39.772V311.8Zm1954.433-.019h-71.018V45.905L2025.451,0V311.777Z" transform="translate(340.871 24.481)" fill="#111b2b"/>
  <g id="Logo_-_borderless" data-name="Logo - borderless">
    <path id="Path_7620" data-name="Path 7620" d="M7.429,36.807C9.4,34.471,23.626,25.125,41.04,16.385,58.106,7.822,76.526.679,78.882.018s8.286,16.689,8.033,36.788c-.245,19.4-4.349,41.342-7.174,44.8S65.614,92.831,49.461,101.558C31.991,111,10.789,119.672,7.428,119.1,4.035,118.529-.673,99.184.08,77.79.738,59.132,5.457,39.145,7.429,36.807Z" transform="matrix(1, -0.017, 0.017, 1, 106.179, 113.189)" fill="#111b2b"/>
    <g id="Group_1631" data-name="Group 1631">
      <path id="Path_7621" data-name="Path 7621" d="M12926.8-19256.828c1.86-8-66.435,37.6-70.747,47.762-2.092,4.926-3.213,40.086-3.289,75.879-.067,37.727,7.737,65.881,10.019,69.26,4.427,6.578,69.825,13.834,142.665,13.834s129.946-5.338,137.267-13.834,11.733-73.607,12.147-157.016c.4-86.588-6.762-171.115-12.147-173.611-5.363-2.553-72.65,39.43-72.878,44.475-.216,5.125,33.105,120.047,16.733,189.98-7.732,43.588-42.94,62.039-86.659,62.039s-71.773-18.713-84.054-65.377C12906.724-19209.328,12924.914-19248.881,12926.8-19256.828Z" transform="translate(-12852.768 19394.666)" fill="#111b2b"/>
    </g>
  </g>
</svg>
