<svg id="Logo_-_borderless" data-name="Logo - borderless" xmlns="http://www.w3.org/2000/svg" width="1062.357" height="1211.316" viewBox="0 0 1062.357 1211.316">
  <path id="Path_7620" data-name="Path 7620" d="M26.121,129.39c6.934-8.212,56.955-41.066,118.19-71.79C204.321,27.5,269.094,2.385,277.381.064s29.139,58.668,28.248,129.326c-.861,68.2-15.293,145.332-25.226,157.479s-49.678,39.47-106.479,70.147C112.493,390.2,37.938,420.692,26.121,418.7,14.189,416.676-2.367,348.67.283,273.462,2.594,207.871,19.187,137.608,26.121,129.39Z" transform="matrix(1, -0.017, 0.017, 1, 373.369, 397.906)" fill="#111b2b"/>
  <g id="Group_1631" data-name="Group 1631">
    <path id="Path_7621" data-name="Path 7621" d="M13113.109-18910.105c6.543-28.123-233.608,132.188-248.773,167.9-7.355,17.318-11.3,140.918-11.567,266.746-.234,132.623,27.21,231.594,35.229,243.475,15.565,23.125,245.535,48.637,501.67,48.637,256.087,0,456.945-18.77,482.684-48.637,25.739-29.852,41.259-258.758,42.717-551.975,1.4-304.393-23.779-601.537-42.717-610.312-18.858-8.971-255.467,138.613-256.269,156.352-.758,18.016,116.415,422.01,58.846,667.855-27.19,153.223-151,218.088-304.729,218.088s-252.388-65.779-295.571-229.82C13042.5-18743.123,13106.466-18882.17,13113.109-18910.105Z" transform="translate(-12852.767 19394.668)" fill="#111b2b"/>
  </g>
</svg>
